<?xml version="1.0" encoding="utf-8"?>
<!-- Generator: Adobe Illustrator 19.2.1, SVG Export Plug-In . SVG Version: 6.00 Build 0)  -->
<svg version="1.1" id="レイヤー_1" xmlns="http://www.w3.org/2000/svg" xmlns:xlink="http://www.w3.org/1999/xlink" x="0px"
	 y="0px" viewBox="0 0 313 300" style="enable-background:new 0 0 313 300;" xml:space="preserve">
<style type="text/css">
	.st0{fill:#DF4A32;}
</style>
<path class="st0" d="M313,147h-42.1v41.3h-24.1V147h-41.1v-0.9h-0.3v-23.5h41.4V80.5h24.1v42.1H312v0.2h1V147z M141.7,14.2
	c2.5,1.5,5.2,3.8,8.3,6.7c2.9,3.1,5.8,6.9,8.7,11.3c2.7,4.2,5.1,9.2,7.2,15c1.7,5.8,2.6,12.5,2.6,20.2c-0.2,14.1-3.3,25.4-9.3,33.8
	c-2.9,4.1-6,7.9-9.3,11.3c-3.6,3.5-7.5,7-11.5,10.6c-2.3,2.4-4.5,5.2-6.5,8.3c-2.3,3.2-3.5,6.9-3.5,11.1c0,4.1,1.2,7.5,3.6,10.2
	c2,2.6,4,4.8,5.9,6.7l13.3,11c8.2,6.8,15.5,14.3,21.7,22.5c5.9,8.3,8.9,19.2,9.1,32.7c0,19.1-8.4,36-25.1,50.7
	c-17.4,15.2-42.4,23.1-75.1,23.6c-27.4-0.3-47.8-6.1-61.4-17.6C6.8,271.6,0,258.7,0,243.8c0-7.3,2.2-15.4,6.7-24.4
	c4.3-9,12.1-16.8,23.4-23.6c12.7-7.3,26-12.1,39.9-14.6c13.8-2,25.3-3.2,34.4-3.5c-2.8-3.7-5.3-7.7-7.5-12
	c-2.6-4.1-3.9-9.1-3.9-14.9c0-3.5,0.5-6.4,1.5-8.7c0.9-2.4,1.7-4.7,2.4-6.8c-4.4,0.5-8.6,0.8-12.6,0.8c-20.8-0.3-36.7-6.9-47.6-19.8
	c-11.4-12-17.1-26.1-17.1-42.1c0-19.3,8.1-36.9,24.3-52.7C54.9,12.5,66.4,6.5,78.4,3.7c11.9-2.4,23-3.6,33.4-3.6H190l-24.2,14.2
	H141.7z M90.9,189.3c-8.1,1.2-16.4,3-24.8,5.6c-2,0.8-4.8,1.9-8.4,3.5c-3.6,1.7-7.3,4-11,7.1c-3.6,3.2-6.7,7.2-9.2,11.9
	c-2.9,5-4.3,11-4.3,18.1c0,13.8,6.2,25.2,18.7,34.2c11.8,9,28,13.6,48.6,13.8c18.4-0.3,32.5-4.4,42.2-12.3
	c9.5-7.8,14.2-17.9,14.2-30.2c0-10-3.2-18.7-9.7-26.1c-6.8-7.1-17.6-15.7-32.1-26c-2.5-0.3-5.4-0.4-8.8-0.4
	C104.2,188.3,99.1,188.5,90.9,189.3z M123.4,38.7c-3.7-7.6-8.6-13.7-14.6-18.5c-6.2-4.5-13.2-6.9-21.3-7.1
	C77,13.3,68.2,17.6,61.1,26c-5.9,8.7-8.8,18.5-8.5,29.3c0,14.2,4.1,29.1,12.4,44.5c4,7.2,9.2,13.3,15.5,18.3
	c6.3,5,13.6,7.5,21.7,7.5c10.3-0.4,18.9-4.1,25.7-11.2c3.3-5,5.4-10.1,6.4-15.4c0.6-5.3,0.9-9.7,0.9-13.3
	C135.3,70.1,131.3,54.5,123.4,38.7z"/>
</svg>
