<?xml version="1.0" encoding="utf-8"?>
<!-- Generator: Adobe Illustrator 19.2.1, SVG Export Plug-In . SVG Version: 6.00 Build 0)  -->
<svg version="1.1" id="レイヤー_1" xmlns="http://www.w3.org/2000/svg" xmlns:xlink="http://www.w3.org/1999/xlink" x="0px"
	 y="0px" viewBox="0 0 315 300" style="enable-background:new 0 0 315 300;" xml:space="preserve">
<style type="text/css">
	.st0{fill:#00C300;}
</style>
<path class="st0" d="M280.3,206.4L280.3,206.4c-32.9,38-106.6,84.3-123.3,91.4c-16.8,7.1-14.3-4.5-13.6-8.5
	c0.4-2.4,2.2-13.5,2.2-13.5c0.5-4,1.1-10.3-0.5-14.2c-1.8-4.4-8.7-6.7-13.8-7.8C55.9,243.8,0,190.9,0,127.7C0,57.3,70.4,0,157,0
	c86.6,0,157,57.3,157,127.8C314,155.9,303.1,181.3,280.3,206.4z M95.5,153.1h-23V98.8c0-4.5-3.7-8.3-8.2-8.3c-4.5,0-8.2,3.7-8.2,8.3
	v62.6c0,4.6,3.7,8.3,8.2,8.3h31.2c4.5,0,8.2-3.7,8.2-8.3C103.8,156.9,100.1,153.1,95.5,153.1z M127.8,98.8c0-4.5-3.7-8.3-8.2-8.3
	s-8.2,3.7-8.2,8.3v62.6c0,4.6,3.7,8.3,8.2,8.3s8.2-3.7,8.2-8.3V98.8z M202.9,98.8c0-4.5-3.7-8.3-8.2-8.3c-4.5,0-8.2,3.7-8.2,8.3
	v38.7l-32-43.7c-1.5-2.1-4-3.3-6.6-3.3c-0.9,0-1.8,0.1-2.6,0.4c-3.4,1.1-5.6,4.3-5.6,7.8v62.6c0,4.6,3.7,8.3,8.2,8.3
	c4.5,0,8.2-3.7,8.2-8.3v-38.7l32,43.6c1.5,2.1,4,3.3,6.6,3.3c0.9,0,1.8-0.1,2.6-0.4c3.4-1.1,5.6-4.3,5.6-7.8V98.8z M253.4,138.4
	c4.5,0,8.2-3.7,8.2-8.3c0-4.6-3.7-8.3-8.2-8.3h-23v-14.8h23c4.5,0,8.2-3.7,8.2-8.3c0-4.5-3.7-8.3-8.2-8.3h-31.2
	c-4.5,0-8.2,3.7-8.2,8.3c0,0,0,0,0,0v31.2c0,0,0,0,0,0c0,0,0,0,0,0v31.2c0,4.6,3.7,8.3,8.2,8.3h31.2c4.5,0,8.2-3.7,8.2-8.3
	c0-4.5-3.7-8.3-8.2-8.3h-23v-14.8H253.4z"/>
</svg>
