<?xml version="1.0" encoding="utf-8"?>
<!-- Generator: Adobe Illustrator 19.2.0, SVG Export Plug-In . SVG Version: 6.00 Build 0)  -->
<svg version="1.1" id="レイヤー_1" xmlns="http://www.w3.org/2000/svg" xmlns:xlink="http://www.w3.org/1999/xlink" x="0px"
	 y="0px" viewBox="0 0 241.6 31.2" style="enable-background:new 0 0 241.6 31.2;" xml:space="preserve">
<style type="text/css">
	.st0{display:none;}
	.st1{display:inline;fill:#FFFFFF;}
	.st2{display:inline;}
	.st3{fill:#FFFFFF;}
</style>
<g id="レイヤー_1_2_">
	<g id="レイヤー_1_1_" class="st0">
		<path class="st1" d="M381.3,251.3l-78.5-78.5c-0.8-0.8-1.8-1.1-2.7-1.8c76.5-91.4,71.9-228-13.9-313.9
			c-44-44-102.4-68.2-164.6-68.2S0.9-186.9-43-142.9c-90.8,90.8-90.8,238.5,0,329.3c44,44,102.4,68.2,164.6,68.2
			c55.2,0,107.4-19.2,149.2-54.2c0.6,0.9,1,1.9,1.8,2.7l78.5,78.5c4.2,4.2,9.6,6.3,15.1,6.3s10.9-2.1,15.1-6.3
			C389.6,273.2,389.6,259.6,381.3,251.3z M121.5,211.8c-50.8,0-98.5-19.8-134.4-55.7C-87,82-87-38.5-12.9-112.7
			c35.9-35.9,83.6-55.7,134.4-55.7s98.5,19.8,134.4,55.7C330-38.5,330,82,255.9,156.1C220,192,172.3,211.8,121.5,211.8z"/>
		<g class="st2">
			<path class="st3" d="M121.5-209.2c-127.9,0-232,104.1-232,232s104.1,232,232,232s232-104.1,232-232S249.5-209.2,121.5-209.2z
				 M67.4,207.2v-88c0-25.1,20.4-45.5,45.5-45.5h17.2c25.1,0,45.5,20.4,45.5,45.5v88c-17.2,5.1-35.3,7.9-54.1,7.9
				C102.7,215.1,84.6,212.3,67.4,207.2z M214.6,191v-71.7c0-46.6-37.9-84.5-84.5-84.5h-17.2c-46.6,0-84.5,37.9-84.5,84.5V191
				c-59.1-32.8-99.2-95.9-99.2-168.1c0-106,86.3-192.3,192.3-192.3S313.8-83.2,313.8,22.9C313.8,95.1,273.7,158.1,214.6,191z"/>
			<circle class="st3" cx="121.5" cy="-44.3" r="56.3"/>
		</g>
	</g>
	<g id="レイヤー_2" class="st0">
		<path class="st1" d="M257,88L257,88l48-43l82.5-73.7L243-157.9l-96.7,86.4l-23.5-21l97.8-87.4l-33.8-30.3L55.1-92.5l57.3,51.2l0,0
			l0,0L-92.2,141.6l-20.3,147.3l28.9-3.2h437.3V243H83.5L257,88z M243-97.4l76.9,68.7L257,27.5l-76.9-68.7L243-97.4z M-46.7,161.5
			L146.2-11l76.9,68.7L30.2,230.2l-87.7,9.6L-46.7,161.5z"/>
	</g>
	<g id="レイヤー_3" class="st0">
		<g class="st2">
			<g>
				<path class="st3" d="M373.9-211.1H-97.7c-7.6,0-13.7,7.7-13.7,17.2V191c0,9.3,6.1,17.2,13.7,17.2H70.5c7.6,0,13.7,7.7,13.7,17
					v52.6c0,9.5,5.6,13.6,12.3,9.3l29.5-19.6c6.7-4.3,17.7-4.3,24.4,0L169,280l10.8,7.2c6.1,3.9,11.3,0.7,12-7.2
					c0.1-0.7,0.1-1.4,0.1-2.2v-52.6c0-9.3,6.1-17,13.7-17h168.2c7.6,0,13.7-7.9,13.7-17.2v-384.9
					C387.6-203.4,381.4-211.1,373.9-211.1z M-65.4,170.8c-7.4,0-13.7-7.9-13.7-17.2v-309.7c0-9.5,6.3-17.2,13.7-17.2H98.2
					c7.7,0,13.7,7.7,13.7,17.2v309.7c0,4.8-1.7,9.5-4.4,12.6c-2.4,2.9-5.6,4.7-9.3,4.7H-65.4V170.8z M355.2,153.5
					c0,9.3-6.1,17.2-13.7,17.2H178c-7.6,0-13.5-7.9-13.5-17.2v-309.7c0-9.5,6-17.2,13.5-17.2h163.5c7.6,0,13.7,7.7,13.7,17.2V153.5z
					"/>
			</g>
			<g>
				<path class="st3" d="M59.5,33.7c0,5.2-1.9,9.9-4.7,12.9c-2.4,2.7-5.4,4.3-8.8,4.3h-59c-7.6,0-13.7-7.7-13.7-17.2
					c0-6.8,3.1-12.7,7.8-15.4c1.7-1.1,3.7-1.6,5.8-1.6h59c3.4,0,6.4,1.4,8.8,4.3C57.7,23.8,59.5,28.5,59.5,33.7z"/>
				<path class="st3" d="M59.5-36.5c0,5.2-1.9,9.9-4.7,12.9c-2.4,2.7-5.6,4.3-9,4.3h-59c-7.4,0-13.5-7.7-13.5-17.2s6.1-17,13.5-17
					h59c3.4,0,6.6,1.6,9,4.3C57.7-46.2,59.5-41.7,59.5-36.5z"/>
			</g>
			<g>
				<path class="st3" d="M303,33.7c0,5.2-1.9,10-4.8,13.1c-2.4,2.5-5.4,4.1-8.8,4.1h-59c-3.4,0-6.4-1.6-8.8-4.1
					c-3-3.1-4.8-7.9-4.8-13.1c0-5,1.7-9.5,4.4-12.4c1.1-1.4,2.3-2.5,3.7-3.1c1.7-1.1,3.6-1.6,5.6-1.6h59c3.4,0,6.4,1.4,8.8,4.1
					C301.2,23.8,303,28.5,303,33.7z"/>
				<path class="st3" d="M302.9-36.5c0,5.2-1.9,9.9-4.7,12.9c-2.4,2.7-5.4,4.3-8.8,4.3h-59c-3.8,0-7.3-2-9.7-5
					c-2.4-3.2-4-7.5-4-12.2c0-5.6,2-10.4,5.3-13.5c2.3-2.3,5.3-3.6,8.4-3.6h59c3.4,0,6.4,1.6,8.8,4.3
					C301-46.2,302.9-41.7,302.9-36.5z"/>
			</g>
		</g>
	</g>
	<g id="レイヤー_4" class="st0">
		<g class="st2">
			<path class="st3" d="M137.6-211.1c-137.8,0-250,112.2-250,250s112.2,250,250,250s250-112.2,250-250S275.4-211.1,137.6-211.1z
				 M79.2,237.6v-94.8c0-27.1,22-49.1,49.1-49.1h18.5c27.1,0,49.1,22,49.1,49.1v94.8c-18.5,5.4-38.1,8.5-58.3,8.5
				C117.3,246.1,97.8,243,79.2,237.6z M237.8,220v-77.2c0-50.2-40.8-91.1-91.1-91.1h-18.5c-50.2,0-91,40.8-91,91.1V220
				C-26.4,184.6-69.6,116.8-69.6,38.9c0-114.2,92.9-207.1,207.1-207.1S344.7-75.3,344.7,38.9C344.7,116.8,301.5,184.6,237.8,220z"/>
			<circle class="st3" cx="137.6" cy="-33.4" r="60.6"/>
		</g>
	</g>
	<g id="レイヤー_5" class="st0">
		<g class="st2">
			<path class="st3" d="M384.4,1.6c-1.2-7.8-6.5-14.3-14-16.9l-39.2-14c-2.3-6.6-5-13-7.9-19.1L341.2-86c3.4-7.1,2.6-15.5-2.1-21.8
				c-15-20.5-33-38.4-53.4-53.4c-6.3-4.7-14.7-5.4-21.8-2.1l-37.6,17.8c-6.2-2.9-12.6-5.5-19.2-7.9l-14-39.2
				c-2.6-7.4-9.1-12.7-16.9-13.9c-27.6-4.2-48-4.2-75.6,0c-7.8,1.2-14.2,6.5-16.9,13.9l-14,39.2c-6.6,2.3-13,4.9-19.2,7.9
				l-37.6-17.8c-7.1-3.4-15.5-2.6-21.8,2.1c-20.4,15-38.4,33-53.4,53.4c-4.7,6.3-5.5,14.7-2.1,21.8l17.9,37.6
				c-2.9,6.2-5.5,12.6-7.9,19.1l-39.2,14c-7.4,2.6-12.8,9.1-13.9,16.9c-2.1,14.1-3.1,26.1-3.1,37.8s1,23.7,3.1,37.8
				c1.2,7.8,6.5,14.3,14,16.9l39.2,14c2.3,6.6,5,13,7.9,19.2l-17.9,37.6c-3.4,7.1-2.6,15.5,2.1,21.8c15,20.5,33,38.4,53.4,53.4
				c6.3,4.7,14.7,5.5,21.8,2.1l37.6-17.8c6.2,2.9,12.6,5.5,19.2,7.9l14,39.2c2.6,7.4,9.1,12.7,16.9,13.9c13.8,2.1,26.2,3.2,37.8,3.2
				s24-1,37.8-3.2c7.8-1.2,14.2-6.5,16.9-13.9l14-39.2c6.6-2.3,13-4.9,19.2-7.9l37.6,17.8c7.1,3.4,15.5,2.6,21.8-2.1
				c20.5-15,38.4-33,53.4-53.4c4.6-6.3,5.4-14.7,2.1-21.8l-17.9-37.6c2.9-6.2,5.6-12.6,7.9-19.2l39.2-14c7.4-2.6,12.8-9.1,14-16.9
				c2.1-14.1,3.1-26.1,3.1-37.8S386.6,15.6,384.4,1.6z M343.8,58.2L307,71.3c-6.4,2.3-11.4,7.5-13.3,14.1
				c-3.3,11.1-7.6,21.6-12.9,31.3c-3.3,6-3.5,13.2-0.5,19.4l16.7,35.1c-8.1,9.7-17,18.6-26.7,26.7l-35.1-16.7
				c-6.2-3-13.4-2.7-19.4,0.5c-9.7,5.3-20.2,9.6-31.3,12.9c-6.5,1.9-11.8,6.9-14.1,13.3l-13.1,36.8c-13.4,1.4-24.3,1.4-37.7,0
				l-13.1-36.8c-2.3-6.4-7.5-11.4-14.1-13.3c-11.1-3.3-21.7-7.6-31.3-12.9c-6-3.3-13.2-3.5-19.4-0.5L6.8,197.8
				c-9.7-8.1-18.6-17-26.7-26.7L-3.2,136c2.9-6.2,2.7-13.4-0.5-19.4C-9,107-13.3,96.5-16.6,85.3c-1.9-6.5-6.9-11.8-13.3-14
				l-36.8-13.1c-0.7-6.7-1-12.9-1-18.8s0.3-12.1,1-18.8l36.8-13.1c6.4-2.3,11.4-7.5,13.3-14C-13.3-17.7-9-28.3-3.7-37.9
				c3.3-6,3.5-13.2,0.5-19.4l-16.7-35.1c8.1-9.7,17-18.6,26.7-26.7l35.1,16.7c6.1,3,13.4,2.7,19.4-0.5c9.6-5.3,20.2-9.6,31.3-12.9
				c6.5-1.9,11.8-6.9,14.1-13.3l13.1-36.8c13.2-1.4,24.2-1.4,37.7,0l13.1,36.8c2.3,6.4,7.5,11.4,14.1,13.3
				c11.1,3.3,21.7,7.6,31.3,12.9c6,3.3,13.2,3.5,19.4,0.5l35.1-16.7c9.7,8.1,18.6,17,26.7,26.7l-16.7,35.1
				c-2.9,6.2-2.7,13.4,0.5,19.4c5.3,9.7,9.6,20.2,12.9,31.3c1.9,6.6,6.9,11.8,13.3,14.1L344,20.6c0.7,6.7,1,12.9,1,18.8
				S344.5,51.5,343.8,58.2z"/>
			<path class="st3" d="M138.6-64.5c-54.5,0-98.8,44.3-98.8,98.8s44.3,98.8,98.8,98.8s98.8-44.3,98.8-98.8S193-64.5,138.6-64.5z
				 M138.6,90.5c-30.9,0-56.1-25.2-56.1-56.1s25.2-56.1,56.1-56.1s56.1,25.2,56.1,56.1S169.5,90.5,138.6,90.5z"/>
		</g>
	</g>
	<g id="レイヤー_6">
		<path class="st3" d="M14.9,3.1l7.7,20.4h2.9v4H15.2v-4h2.5l-1-2.5H8.6l-1,2.5h2.5v4H0v-4h2.8L9.3,7.1H6.4v-4H14.9 M12.8,9.9
			L10,17.2h5.3L12.8,9.9z"/>
		<polyline class="st3" points="35.4,3.1 45.5,18.8 45.5,7.1 42.8,7.1 42.8,3.1 53.1,3.1 53.1,7.1 50.2,7.1 50.2,27.5 45.8,27.5 
			35.6,11.4 35.6,23.4 38.4,23.4 38.4,27.5 28.2,27.5 28.2,23.4 30.9,23.4 30.9,7.1 28.2,7.1 28.2,3.1 35.4,3.1 		"/>
		<polyline class="st3" points="65.4,7.1 63.3,7.1 66.7,13.6 69.9,7.1 67.9,7.1 67.9,3.1 77.4,3.1 77.4,7.1 74.8,7.1 69,18 69,23.4 
			71.9,23.4 71.9,27.5 61.6,27.5 61.6,23.4 64.2,23.4 64.2,17.7 58.5,7.1 55.9,7.1 55.9,3.1 65.4,3.1 65.4,7.1 		"/>
		<polyline class="st3" points="99.3,3.1 99.3,10.8 95.6,10.8 95.6,7.1 91.9,7.1 91.9,23.4 94.8,23.4 94.8,27.5 84.7,27.5 
			84.7,23.4 87.2,23.4 87.2,7.1 83.7,7.1 83.7,10.8 80.1,10.8 80.1,3.1 99.3,3.1 		"/>
		<polyline class="st3" points="114.3,3.1 114.3,7.1 111.4,7.1 111.4,23.4 114.3,23.4 114.3,27.5 104,27.5 104,23.4 106.6,23.4 
			106.6,7.1 104,7.1 104,3.1 114.3,3.1 		"/>
		<polyline class="st3" points="128.2,3.1 134.2,20.9 140.1,3.1 149.3,3.1 149.3,7.1 146.7,7.1 146.7,23.4 149.3,23.4 149.3,27.5 
			139.4,27.5 139.4,23.4 142.3,23.4 142.3,8.6 136,27.5 132.4,27.5 126.1,8.6 126.1,23.4 129,23.4 129,27.5 119,27.5 119,23.4 
			121.6,23.4 121.6,7.1 119,7.1 119,3.1 128.2,3.1 		"/>
		<polyline class="st3" points="172.1,3.1 172.1,10.8 167.8,10.8 167.8,7.1 161.3,7.1 161.3,13 167.8,13 167.8,17.1 161.3,17.1 
			161.3,23.4 167.8,23.4 167.8,19.8 172.1,19.8 172.1,27.5 154,27.5 154,23.4 156.6,23.4 156.6,7.1 154,7.1 154,3.1 172.1,3.1 		"/>
		<path class="st3" d="M191.6,3.2v6.3h-4.3c-0.3-0.6-0.7-1.3-1.2-1.8c-0.6-0.6-1.4-1-2.4-1c-0.7,0-1.4,0.2-1.8,0.7
			c-0.5,0.5-0.7,1-0.7,1.8c0,0.9,0.3,1.5,1,2c0.6,0.5,1.4,0.9,2.5,1.1c1,0.3,2,0.6,3.1,1c1,0.4,2.1,1,3,1.8c0.5,0.5,1,1.1,1.4,1.9
			s0.6,1.8,0.7,3.1c-0.1,2.3-0.9,4.1-2.4,5.5s-3.3,2.1-5.3,2.2c-1.2-0.1-2.2-0.2-3.1-0.6c-0.9-0.4-1.4-0.6-1.6-0.9v1h-3.7V20h4.2
			c0.2,1.2,0.8,2.1,1.6,2.6c0.8,0.6,1.7,0.8,2.7,0.8s1.8-0.4,2.3-1c0.6-0.6,0.8-1.4,0.8-2.2c-0.1-1-0.4-1.8-1.1-2.3
			c-0.7-0.6-1.6-1-2.6-1.3s-2.2-0.6-3.3-1s-2.1-1-2.9-1.8c-0.6-0.6-1-1.2-1.3-2c-0.2-0.7-0.4-1.5-0.4-2.3c0-1.8,0.6-3.3,1.8-4.8
			s2.9-2.2,5.1-2.3c0.9,0,1.7,0.2,2.4,0.4s1.3,0.6,1.9,1V3.2H191.6"/>
	</g>
	<circle class="st3" cx="221.3" cy="15.6" r="15.6"/>
	<g id="g16531" transform="matrix(2.7633305e-2,0,0,-2.7633305e-2,147.83029,39.239293)">
		<path id="path16533" class="st3" d="M2400.7,420.8l-87.6,19.8c26.3,56.9,44.9,109.6,55.8,158l130.7,577.8
			c13.6,60.1,29,103.7,46.3,130.6c17.3,27,44.1,48,80.7,63.2c36.5,15.2,78.4,17.6,125.5,7.3c55.9-12.6,99.4-37.9,130.6-75.9
			c31.2-37.9,40.8-84.3,28.7-139.3c-14.4-63.7-56.5-109-126.2-136c80.6-62.9,110.6-139.7,90-230.7c-11.2-49.5-33.1-91.1-65.6-124.6
			c-32.5-33.5-66.4-55.3-101.7-65.1c-35.3-9.9-74.7-9.7-118.1,0.5c-49.5,11.2-85.6,38.9-108.4,83.1l-22.3-98.7
			C2443.9,523.1,2424.4,466.3,2400.7,420.8z M2492.4,737.5c17.3-51.9,50.7-83.4,100.2-94.6c47.8-10.8,86.7-1.4,116.8,28.2
			c30.1,29.6,50.9,69.6,62.2,119.8c8.6,38.2,10.2,78.8,4.7,121.7c-5.5,42.9-17.6,77.6-36.1,104.1c-22.4-0.5-42.1,1.2-59.1,5
			c-35.7,8.1-51.5,21.5-47.2,40.2c3.8,17,20.8,22.1,50.9,15.3c18.7-4.2,41.1-13.8,67.2-28.6c34.7,36.8,57.7,80.1,69,130
			c10.1,44.6,8.1,80.9-6,109c-14.1,28.1-37.1,45.8-68.9,53c-25.1,5.7-48.1,3.5-69-6.7c-20.9-10.1-37.1-24.1-48.5-42
			c-11.5-17.9-22.1-49.3-31.9-94.3L2492.4,737.5z"/>
	</g>
</g>
</svg>
