<?xml version="1.0" encoding="utf-8"?>
<!-- Generator: Adobe Illustrator 19.2.1, SVG Export Plug-In . SVG Version: 6.00 Build 0)  -->
<svg version="1.1" id="レイヤー_1" xmlns="http://www.w3.org/2000/svg" xmlns:xlink="http://www.w3.org/1999/xlink" x="0px"
	 y="0px" viewBox="0 0 315 300" style="enable-background:new 0 0 315 300;" xml:space="preserve">
<style type="text/css">
	.st0{fill:#939393;}
</style>
<g>
	<path class="st0" d="M314.2,60.9c-1.4-7.2-4.6-13.7-9-19.1c-0.9-1.2-1.9-2.2-3-3.3c-7.8-7.9-18.9-12.8-30.9-12.8H43.7
		c-12,0-23,4.9-30.9,12.8c-1.1,1.1-2,2.1-3,3.3c-4.4,5.4-7.6,12-9,19.1C0.3,63.6,0,66.5,0,69.4v159.9c0,6.1,1.3,12,3.6,17.4
		c2.2,5.1,5.3,9.7,9.2,13.5c1,1,1.9,1.9,3,2.8c7.6,6.3,17.3,10,27.9,10h227.6c10.6,0,20.4-3.8,27.9-10.1c1.1-0.9,2-1.7,3-2.7
		c3.9-3.9,7-8.5,9.2-13.5v0c2.3-5.3,3.6-11.2,3.6-17.3V69.4C315,66.5,314.7,63.6,314.2,60.9z M28.6,54.3c3.9-3.9,9.1-6.3,15.1-6.3
		h227.6c5.9,0,11.2,2.4,15.1,6.3c0.7,0.7,1.3,1.5,1.9,2.2L169,160.5c-3.3,2.9-7.4,4.3-11.5,4.3c-4.1,0-8.2-1.4-11.5-4.3L26.7,56.5
		C27.3,55.7,27.9,55,28.6,54.3z M22.4,229.2V79.6l86.3,75.3l-86.3,75.2C22.4,229.9,22.4,229.5,22.4,229.2z M271.3,250.6H43.7
		c-3.9,0-7.5-1-10.6-2.8l91-79.3l8.5,7.4c7.1,6.2,16,9.3,24.8,9.3c8.9,0,17.8-3.1,24.9-9.3l8.5-7.4l91,79.3
		C278.8,249.5,275.2,250.6,271.3,250.6z M292.6,229.2c0,0.3,0,0.6,0,0.9L206.3,155l86.3-75.3V229.2z"/>
</g>
</svg>
