<?xml version="1.0" encoding="utf-8"?>
<!-- Generator: Adobe Illustrator 19.2.1, SVG Export Plug-In . SVG Version: 6.00 Build 0)  -->
<svg version="1.1" id="レイヤー_1" xmlns="http://www.w3.org/2000/svg" xmlns:xlink="http://www.w3.org/1999/xlink" x="0px"
	 y="0px" viewBox="0 0 350 300" style="enable-background:new 0 0 350 300;" xml:space="preserve">
<style type="text/css">
	.st0{fill:#55ACEE;}
</style>
<path class="st0" d="M350,35.5c-4,6.7-9.4,13.7-16.1,21.1c-5.4,5.9-11.9,12-19.6,18.1v2.2v2.6c0,1.2,0.1,2.1,0.3,2.6v2.6
	c0,25.4-4.6,50.9-13.7,76.4c-9.1,25.5-22.1,48.4-38.9,68.6c-18,21.7-39.9,38.8-65.6,51.4c-25.7,12.6-54.5,18.9-86.3,18.9
	c-20.6,0-40-3-58.2-8.9c-18.7-5.9-36-14.3-51.9-25.2c0.9,0.2,2.3,0.4,4.2,0.4c3.7,0.5,6.5,0.7,8.4,0.7h4.6c16.4,0,32.4-2.8,48-8.5
	c14.5-5.4,28.2-13.3,41-23.7c-15-0.2-28.9-5.4-41.7-15.5c-12.6-9.9-21-22.3-25.3-37.4c3.5,0.7,5.7,1.1,6.7,1.1h3.5
	c0.7,0.2,1.8,0.4,3.2,0.4c2.1,0,3.7-0.1,4.9-0.4c2.3,0,5.6-0.5,9.8-1.5c0.5,0,1.2-0.1,2.1-0.4c0.9-0.2,1.6-0.4,2.1-0.4
	c-16.6-3.5-30.3-12.2-41-26.3c-11-14.1-16.5-30.1-16.5-48.1v-0.4v-0.4v-0.4c4.4,3,9.6,5.2,15.4,6.7c6.1,2,11.8,3,17.2,3
	c-10.3-7.4-18-16.4-23.1-27c-5.8-10.9-8.8-22.9-8.8-36.3c0-7.4,0.8-14.1,2.5-20c0.9-4.2,3.3-10.2,7-18.1
	c18.2,23.7,40,42.2,65.2,55.5c26,14.3,53.5,22.2,82.8,23.7c-0.7-5.2-1.1-8-1.1-8.5c-0.5-3.5-0.7-6.3-0.7-8.5c0-21,7-38.8,21-53.6
	c14-14.8,31-22.2,50.9-22.2c10.3,0,20,2.1,29.1,6.3c9.1,4.7,17,10.6,23.5,17.8c7.5-1.7,15.4-4.2,23.8-7.4c7-2.7,14.3-6.4,21.7-11.1
	c-2.8,8.9-6.9,16.9-12.3,24c-6.1,7.4-12.5,13.3-19.3,17.8c7-1.2,14-2.7,21-4.4C335.4,41.4,342.1,39,350,35.5z"/>
</svg>
